{"title":"Demons 2 1986 720p Brrip x264 SSloco","uid":11982743,"size":730086224,"categoryP":"video","categoryS":"hd___movies","magnet":"?xt=urn:btih:e17c744c9a4b0dfedab13277bb1b81d86f02076d&amp;dn=Demons+2+1986+720p+Brrip+x264+SSloco&amp;tr=udp%3A%2F%2Ftracker.openbittorrent.com%3A80&amp;tr=udp%3A%2F%2Fopen.demonii.com%3A1337&amp;tr=udp%3A%2F%2Ftracker.coppersurfer.tk%3A6969&amp;tr=udp%3A%2F%2Fexodus.desync.com%3A6969","seeders":0,"leechers":1,"uploader":"myhoes14","files":2,"time":1433264508,"description":"Source:Demons.2.1986.1080p.BluRay.DTS-HD.x264-BARC0DE\n\n\nMedia Info\n\n\nFormat : MPEG-4\nFormat profile : Base Media\nCodec ID : isom\nFile size : 690 MiB\nDuration : 1h 31mn\nOverall bit rate mode : Variable\nOverall bit rate : 1 058 Kbps\nEncoded date : UTC 2015-05-03 00:02:08\nTagged date : UTC 2015-05-03 00:02:08\n\nVideo\nID : 1\nFormat : AVC\nFormat/Info : Advanced Video Codec\nFormat profile : &lt;a class=&quot;__cf_email__&quot; href=&quot;/cdn-cgi/l/email-protection&quot; data-cfemail=&quot;175f7e707f575b233926&quot;&gt;[email&amp;#160;protected]&lt;/a&gt;&lt;script data-cfhash='f9e31' type=&quot;text/javascript&quot;&gt;\n/* &lt;![CDATA[ */!function(){try{var t=&quot;currentScript&quot;in document?document.currentScript:function(){for(var t=document.getElementsByTagName(&quot;script&quot;),e=t.length;e--;)if(t[e].getAttribute(&quot;data-cfhash&quot;))return t[e]}();if(t&amp;&amp;t.previousSibling){var e,r,n,i,c=t.previousSibling,a=c.getAttribute(&quot;data-cfemail&quot;);if(a){for(e=&quot;&quot;,r=parseInt(a.substr(0,2),16),n=2;a.length-n;n+=2)i=parseInt(a.substr(n,2),16)^r,e+=String.fromCharCode(i);e=document.createTextNode(e),c.parentNode.replaceChild(e,c)}t.parentNode.removeChild(t);}}catch(u){}}()/* ]]&gt; */&lt;/script&gt;\nFormat settings, CABAC : Yes\nFormat settings, ReFrames : 4 frames\nCodec ID : avc1\nCodec ID/Info : Advanced Video Coding\nDuration : 1h 31mn\nBit rate : 1 000 Kbps\nMaximum bit rate : 4 784 Kbps\nWidth : 1 280 pixels\nHeight : 768 pixels\nDisplay aspect ratio : 1.667\nFrame rate mode : Constant\nFrame rate : 23.976 fps\nColor space : YUV\nChroma subsampling : 4:2:0\nBit depth : 8 bits\nScan type : Progressive\nBits/(Pixel*Frame) : 0.042\nStream size : 651 MiB (94%)\nWriting library : x264 core 142 r2431 ac76440\nEncoding settings : cabac=1 / ref=4 / deblock=1:-1:-1 / analyse=0x3:0x133 / me=umh / subme=8 / psy=1 / psy_rd=1.00:0.15 / mixed_ref=1 / me_range=16 / chroma_me=1 / trellis=1 / 8x8dct=1 / cqm=0 / deadzone=21,11 / fast_pskip=1 / chroma_qp_offset=-3 / threads=6 / lookahead_threads=1 / sliced_threads=0 / nr=0 / decimate=1 / interlaced=0 / bluray_compat=0 / constrained_intra=0 / bframes=4 / b_pyramid=2 / b_adapt=2 / b_bias=0 / direct=3 / weightb=1 / open_gop=0 / weightp=2 / keyint=240 / keyint_min=23 / scenecut=40 / intra_refresh=0 / rc_lookahead=60 / rc=2pass / mbtree=1 / bitrate=1000 / ratetol=1.0 / qcomp=0.60 / qpmin=0 / qpmax=69 / qpstep=4 / cplxblur=20.0 / qblur=0.5 / vbv_maxrate=62500 / vbv_bufsize=78125 / nal_hrd=none / filler=0 / ip_ratio=1.40 / aq=1:1.00\nEncoded date : UTC 2015-05-03 00:02:08\nTagged date : UTC 2015-05-03 00:03:00\nColor primaries : BT.709\nMatrix coefficients : BT.709\nColor range : Limited\n\nAudio\nID : 2\nFormat : AAC\nFormat/Info : Advanced Audio Codec\nFormat profile : HE-AAC / LC\nCodec ID : 40\nDuration : 1h 31mn\nBit rate mode : Variable\nBit rate : 55.8 Kbps\nMaximum bit rate : 77.1 Kbps\nChannel(s) : 2 channels\nChannel positions : Front: L R\nSampling rate : 48.0 KHz / 24.0 KHz\nCompression mode : Lossy\nStream size : 36.4 MiB (5%)\nLanguage : English\nEncoded date : UTC 2015-05-02 23:58:49\nTagged date : UTC 2015-05-03 00:03:00\n\nMenu\n00:00:00.000 : Chapter 1\n00:05:35.251 : Chapter 2\n00:15:45.569 : Chapter 3\n00:28:07.102 : Chapter 4\n00:34:26.314 : Chapter 5\n00:43:26.103 : Chapter 6\n00:54:08.703 : Chapter 7\n00:59:44.038 : Chapter 8\n01:08:53.963 : Chapter 9\n01:16:41.638 : Chapter 10\n01:25:14.734 : Chapter 11\n01:28:27.010 : Chapter 12","torrent":{"xt":"urn:btih:e17c744c9a4b0dfedab13277bb1b81d86f02076d","amp;dn":"Demons+2+1986+720p+Brrip+x264+SSloco","amp;tr":["udp%3A%2F%2Ftracker.openbittorrent.com%3A80","udp%3A%2F%2Fopen.demonii.com%3A1337","udp%3A%2F%2Ftracker.coppersurfer.tk%3A6969","udp%3A%2F%2Fexodus.desync.com%3A6969"],"infoHash":"e17c744c9a4b0dfedab13277bb1b81d86f02076d","infoHashBuffer":{"type":"Buffer","data":[225,124,116,76,154,75,13,254,218,177,50,119,187,27,129,216,111,2,7,109]},"announce":[],"urlList":[]}}